<?xml version="1.0" encoding="UTF-8"?>
<svg id="Layer_1" xmlns="http://www.w3.org/2000/svg" viewBox="0 0 306.3 67.34">
  <defs>
    <style>
      .cls-1 {
        fill: #231f20;
      }
    </style>
  </defs>
  <path class="cls-1" d="M39.67,34.41s3.2-20.56,3.27-21.25c.05.56,4.56,21.25,4.56,21.25h6.75l7.11-27.96h-5.83s-4.81,21.59-4.93,22.58c-.14-1.03-5.05-22.58-5.05-22.58h-5.21l-4.22,22.6L21.13,0h-6.71l18.41,34.41h6.84Z"/>
  <path class="cls-1" d="M69.5,23.69h3.15l6.67,10.73h6.58l-8.22-12.18c1.66-.73,2.94-1.73,3.84-3.01.9-1.28,1.36-2.74,1.36-4.39,0-2.82-.91-4.92-2.73-6.3-1.82-1.38-4.63-2.07-8.43-2.07h-8.15v27.96h5.93v-10.73ZM69.5,11.31h1.8c1.91,0,3.32.28,4.24.84.91.56,1.37,1.5,1.37,2.83s-.45,2.32-1.34,2.94c-.89.62-2.28.94-4.15.94h-1.91v-7.55Z"/>
  <polygon class="cls-1" points="99.88 31.05 96.47 29.48 96.47 11.39 99.88 9.82 99.88 6.46 87.16 6.46 87.16 9.82 90.57 11.39 90.57 29.48 87.16 31.05 87.16 34.41 99.88 34.41 99.88 31.05"/>
  <polygon class="cls-1" points="109.52 34.41 115.44 34.41 115.44 11.39 123.03 11.39 123.03 6.46 101.92 6.46 101.92 11.39 109.52 11.39 109.52 34.41"/>
  <polygon class="cls-1" points="143.44 29.52 133.26 29.52 133.26 22.31 142.73 22.31 142.73 17.45 133.26 17.45 133.26 11.31 143.44 11.31 143.44 6.46 127.34 6.46 127.34 34.41 143.44 34.41 143.44 29.52"/>
  <path class="cls-1" d="M184.81,20.4c0-4.64-1.14-8.2-3.41-10.67-2.28-2.47-5.56-3.71-9.86-3.71s-7.59,1.23-9.9,3.68c-2.3,2.45-3.45,6.01-3.45,10.66s1.15,8.22,3.44,10.71c2.29,2.49,5.58,3.73,9.87,3.73s7.57-1.24,9.87-3.73c2.29-2.49,3.44-6.04,3.44-10.67ZM171.51,29.82c-2.36,0-4.13-.79-5.32-2.37-1.19-1.58-1.78-3.93-1.78-7.06s.6-5.48,1.8-7.07c1.2-1.59,2.98-2.38,5.33-2.38,4.7,0,7.06,3.15,7.06,9.45s-2.36,9.43-7.09,9.43Z"/>
  <path class="cls-1" d="M195.9,21.26c0-1.59-.12-4.26-.36-7.99h.17l12.16,21.15h7.53V6.46h-5.33v13.23c0,1.5.1,4.07.29,7.71h-.13l-12.14-20.94h-7.48v27.96h5.3v-13.16Z"/>
  <path class="cls-1" d="M32.12,35.62L13.41,0l-4.89,2.28,8.79,17.06L0,67.01h6.69l8.74-25.11h13.5l12.94,25.11h6.73l-13.18-25.1h35.74v25.1h5.93v-25.1h9.03v-6.29h-54ZM17.61,35.62l3.36-9.16,4.72,9.16h-8.08Z"/>
  <polygon class="cls-1" points="109.12 48.07 96.84 48.07 96.84 35.91 90.27 35.91 90.27 66.92 96.84 66.92 96.84 53.54 109.12 53.54 109.12 66.92 115.67 66.92 115.67 35.91 109.12 35.91 109.12 48.07"/>
  <polygon class="cls-1" points="119.92 39.65 123.69 41.39 123.69 61.45 119.92 63.18 119.92 66.92 134.02 66.92 134.02 63.18 130.24 61.45 130.24 41.39 134.02 39.65 134.02 35.91 119.92 35.91 119.92 39.65"/>
  <path class="cls-1" d="M150.05,49.02c-2.19-1.05-3.58-1.77-4.17-2.17-.59-.4-1.01-.82-1.28-1.25-.27-.43-.4-.94-.4-1.52,0-.93.33-1.69,1-2.27.66-.58,1.62-.87,2.86-.87,1.05,0,2.11.13,3.19.4,1.08.27,2.45.74,4.1,1.42l2.12-5.11c-1.6-.69-3.13-1.23-4.59-1.61-1.46-.38-3-.57-4.61-.57-3.28,0-5.85.78-7.71,2.35-1.86,1.57-2.79,3.73-2.79,6.47,0,1.46.28,2.73.85,3.82.57,1.09,1.32,2.04,2.27,2.86.95.82,2.37,1.68,4.26,2.57,2.02.96,3.36,1.66,4.02,2.1.66.44,1.16.89,1.49,1.37.34.47.51,1.01.51,1.62,0,1.09-.39,1.91-1.16,2.46-.77.55-1.88.83-3.32.83-1.2,0-2.53-.19-3.98-.57-1.45-.38-3.22-1.04-5.31-1.97v6.11c2.54,1.24,5.47,1.87,8.78,1.87,3.59,0,6.39-.81,8.41-2.42,2.01-1.61,3.02-3.82,3.02-6.62,0-2.02-.54-3.73-1.61-5.12-1.07-1.39-3.06-2.78-5.96-4.17Z"/>
  <path class="cls-1" d="M186.93,41.34c1.13,0,2.28.2,3.46.61,1.17.4,2.34.88,3.5,1.42l2.12-5.26c-3.04-1.43-6.06-2.15-9.08-2.15s-5.53.64-7.73,1.91c-2.2,1.27-3.88,3.1-5.06,5.49-1.17,2.39-1.76,5.17-1.76,8.34,0,5.04,1.19,8.91,3.58,11.6,2.39,2.69,5.84,4.04,10.35,4.04,3.14,0,5.98-.52,8.52-1.57v-5.43c-3.1,1.07-5.73,1.61-7.91,1.61-5.19,0-7.78-3.4-7.78-10.21,0-3.27.68-5.82,2.04-7.65,1.36-1.83,3.27-2.75,5.75-2.75Z"/>
  <polygon class="cls-1" points="220.29 48.07 208.01 48.07 208.01 35.91 201.44 35.91 201.44 66.92 208.01 66.92 208.01 53.54 220.29 53.54 220.29 66.92 226.84 66.92 226.84 35.91 220.29 35.91 220.29 48.07"/>
  <path class="cls-1" d="M241.71,35.79l-10.94,31.13h7.08l2.25-7.38h11.3l2.25,7.38h7.08l-10.98-31.13h-8.04ZM241.75,54.02c2.21-7.14,3.54-11.61,4.01-13.42.11.51.3,1.2.56,2.08.26.88,1.43,4.66,3.51,11.34h-8.08Z"/>
  <polygon class="cls-1" points="262.13 39.65 265.9 41.39 265.9 61.45 262.13 63.18 262.13 66.92 276.23 66.92 276.23 63.18 272.45 61.45 272.45 41.39 276.23 39.65 276.23 35.91 262.13 35.91 262.13 39.65"/>
  <path class="cls-1" d="M297.18,53.41c1.84-.81,3.26-1.92,4.26-3.34,1-1.42,1.51-3.04,1.51-4.87,0-3.12-1.01-5.45-3.03-6.99-2.02-1.53-5.14-2.3-9.35-2.3h-9.03v31h6.57v-11.9h3.5l7.4,11.9h7.29l-9.12-13.51ZM294.82,48.64c-.99.69-2.52,1.04-4.6,1.04h-2.12v-8.38h1.99c2.12,0,3.69.31,4.7.93,1.01.62,1.52,1.67,1.52,3.14s-.5,2.57-1.48,3.27Z"/>
</svg>